<svg version="1.1" id="Layer_1" xmlns="http://www.w3.org/2000/svg" xmlns:xlink="http://www.w3.org/1999/xlink" x="0px" y="0px"
	 width="100%" viewBox="0 0 1199 1148" enable-background="new 0 0 1199 1148" xml:space="preserve">
<path fill="#FFFFFF" opacity="1.000000" stroke="none" 
	d="
M1200.000000,524.000000 
	C1200.000000,732.260315 1200.000000,940.520691 1200.000000,1149.000000 
	C1006.307556,1149.000000 812.614990,1149.000000 618.672607,1148.726074 
	C622.723572,1145.167969 628.293274,1142.703613 631.056213,1138.426147 
	C636.499817,1129.998901 641.527649,1120.948364 644.699829,1111.476440 
	C653.756897,1084.432983 656.401611,1056.269287 656.993774,1027.886963 
	C657.590393,999.294617 655.592896,971.039429 646.161865,943.731262 
	C642.390747,932.811646 638.206360,921.973816 629.615417,913.930542 
	C612.950439,898.327698 601.938354,901.849792 594.272034,920.044678 
	C589.852051,930.535034 586.636475,941.670349 584.112122,952.795166 
	C577.525818,981.820557 576.264771,1011.433838 576.054993,1041.071899 
	C575.875427,1066.429688 577.645752,1091.623413 585.061157,1116.081787 
	C589.045593,1129.223511 593.729675,1142.000244 607.000000,1149.000000 
	C405.070984,1149.000000 203.141983,1149.000000 1.000000,1149.000000 
	C1.000000,950.307556 1.000000,751.614990 1.325181,552.578735 
	C4.205894,558.549683 8.713781,563.393433 14.647645,566.221130 
	C24.515936,570.923645 34.461952,575.900391 44.912979,578.867554 
	C92.179474,592.287048 140.102097,592.968872 188.280594,584.421936 
	C203.468246,581.727600 218.051071,577.143494 230.772903,568.051758 
	C248.727417,555.220398 248.518494,536.272522 230.314560,523.944702 
	C217.144302,515.025818 202.189072,510.430054 186.879410,507.027496 
	C153.939713,499.706543 120.573959,498.532928 87.066101,501.286224 
	C67.094292,502.927307 47.544376,506.906708 29.015190,514.884827 
	C16.285416,520.365784 5.423233,527.885010 1.000000,542.000000 
	C1.000000,361.729736 1.000000,181.459457 1.000000,1.000000 
	C223.359131,1.000000 445.718323,1.000000 668.293091,1.258214 
	C657.010681,4.653974 650.612427,13.267056 645.976868,23.314535 
	C641.736694,32.505070 637.851685,41.901661 634.482727,51.444889 
	C617.700745,98.982262 612.607849,148.254074 613.502197,198.317963 
	C613.707458,209.809875 615.325378,221.144852 620.798157,231.635849 
	C628.795410,246.966263 651.180603,257.306122 668.928284,239.197342 
	C677.320801,230.634064 683.199097,220.473450 687.028625,209.100800 
	C705.042542,155.604294 711.451660,100.247040 713.049011,44.193275 
	C713.701538,21.297031 702.717957,6.716963 681.707825,1.650481 
	C681.435425,1.584790 681.234375,1.223374 681.000000,0.999997 
	C853.929016,1.000000 1026.858032,1.000000 1200.000000,1.000000 
	C1200.000000,171.025772 1200.000000,341.051636 1199.685303,511.304352 
	C1196.830688,490.637146 1187.873047,482.135193 1166.726074,483.185913 
	C1142.324585,484.398346 1117.916504,486.360657 1093.648926,489.181396 
	C1055.589722,493.605255 1018.155762,501.378418 982.322571,515.297729 
	C972.055664,519.285828 961.860291,524.331116 952.958679,530.735535 
	C942.279236,538.419128 941.306824,551.002747 950.620850,560.297302 
	C966.298828,575.942383 985.155823,586.430054 1008.077698,584.134521 
	C1032.681763,581.670471 1057.225464,578.090820 1081.580322,573.780945 
	C1112.184937,568.364990 1142.391724,561.099243 1171.942383,551.181519 
	C1185.929199,546.487366 1197.542114,540.193726 1200.000000,524.000000 
M584.542480,697.596741 
	C596.512634,697.089661 608.511169,696.942078 620.447144,696.001526 
	C645.990112,693.988586 669.379150,685.836975 688.861084,668.828735 
	C717.718018,643.635803 734.012695,611.343567 738.244324,573.575623 
	C741.787537,541.951233 729.698364,515.997742 704.090698,497.143341 
	C686.043518,483.855560 664.703979,481.925415 643.085815,482.667206 
	C630.372131,483.103455 618.510132,486.641846 607.972046,494.048523 
	C595.685242,502.684326 586.948975,513.456482 589.205933,529.481995 
	C590.163696,536.282715 592.806641,542.903564 595.150085,549.438904 
	C599.068665,560.366638 603.572632,571.088074 607.322266,582.069824 
	C608.090454,584.319519 607.435425,588.088562 605.905518,589.732178 
	C604.857666,590.857849 600.713867,590.291504 598.712585,589.150879 
	C583.119385,580.263123 569.023987,570.125793 561.066956,552.815552 
	C545.621460,519.214355 550.893799,489.119629 578.543945,464.755981 
	C603.244141,442.991577 632.576599,429.709198 664.025146,421.022369 
	C686.386780,414.845551 708.969543,413.795990 731.522583,420.556091 
	C759.595825,428.970825 780.249512,447.249237 797.273865,470.227081 
	C799.144592,472.751953 800.547729,476.147491 800.801392,479.250854 
	C801.666809,489.838715 802.463318,500.484406 802.308533,511.093750 
	C801.825562,544.195251 793.787903,575.618958 780.034424,605.629700 
	C761.664551,645.713989 733.787964,678.120300 699.321289,705.158875 
	C648.107605,745.335327 590.587952,765.026001 525.215149,757.031494 
	C460.819794,749.156616 417.524109,713.299744 394.278381,653.487793 
	C379.702698,615.984131 381.835846,577.432617 391.577728,539.045593 
	C406.640533,479.692200 440.515381,432.937317 488.274750,395.668854 
	C496.388458,389.337402 505.894073,384.743988 513.781250,378.176270 
	C539.993652,356.349091 551.139221,327.834625 548.757141,294.055084 
	C547.937012,282.425049 543.175903,272.380707 532.758179,266.109467 
	C523.190247,260.349731 512.583618,258.341431 501.543854,259.524231 
	C486.324097,261.154846 472.806549,267.686462 459.828735,275.270752 
	C424.947083,295.655792 394.539856,321.857300 365.130157,349.236572 
	C335.903290,376.445557 312.960358,408.339905 296.401001,444.705078 
	C280.530334,479.557800 271.566040,516.228455 267.852600,554.296509 
	C264.797424,585.617065 264.922729,616.840210 270.292542,647.884705 
	C279.519287,701.227051 303.404083,746.797119 342.546173,784.481140 
	C388.451538,828.676453 443.125214,851.999939 506.618256,854.825562 
	C539.907898,856.307007 572.834656,852.680481 605.362366,845.936584 
	C687.289307,828.950928 761.163391,795.140259 823.317322,738.329163 
	C867.390930,698.044067 892.427734,648.422424 894.211792,587.722107 
	C895.324646,549.858521 895.803894,512.091675 888.829773,474.725006 
	C886.373047,461.561920 883.838013,447.799744 877.970093,435.984131 
	C831.065491,341.538208 716.114075,307.504120 629.830994,341.665619 
	C595.091003,355.419983 565.018860,376.172729 537.658386,401.190094 
	C513.068115,423.674347 490.901398,448.199188 475.214508,477.922638 
	C461.597046,503.724945 454.972748,530.955627 459.012085,560.283813 
	C461.194672,576.130737 467.208069,590.751526 473.242950,605.352112 
	C482.404846,627.518005 492.265656,649.320923 506.139923,669.089722 
	C515.826294,682.891418 528.532593,691.857117 545.359070,694.011658 
	C558.039978,695.635437 570.826904,696.431702 584.542480,697.596741 
M822.076477,1020.412964 
	C836.325500,1035.324585 850.198914,1050.620361 864.935669,1065.033447 
	C878.055176,1077.864624 893.726624,1078.654785 908.464539,1067.881714 
	C922.779846,1057.417603 929.807739,1043.891846 920.647705,1025.065674 
	C908.066284,999.207581 896.570801,972.813477 884.924438,946.509827 
	C872.275574,917.942139 857.642212,890.573303 837.982239,866.134216 
	C829.656738,855.784729 820.041260,846.887878 807.913574,841.081177 
	C789.946960,832.478760 772.057861,836.619019 759.786011,852.362366 
	C750.077332,864.817566 750.574829,878.702881 755.154297,892.735168 
	C770.192200,938.814331 791.395630,981.708313 822.076477,1020.412964 
M1123.970703,842.329468 
	C1126.167480,835.373291 1128.969971,828.540710 1130.421631,821.432373 
	C1132.698975,810.280884 1129.730591,801.151306 1119.595215,794.200867 
	C1097.348633,778.945068 1075.464233,763.152710 1053.634277,747.300720 
	C1031.373657,731.135925 1008.666321,715.744995 983.645081,704.085022 
	C967.554138,696.586609 951.093872,690.439026 932.929565,690.838623 
	C916.380371,691.202576 905.261230,699.692200 900.210510,715.841431 
	C895.817566,729.887573 900.363098,742.227173 913.523621,751.907837 
	C914.997498,752.992004 916.512817,754.031006 918.075745,754.981140 
	C945.807129,771.839783 973.092896,789.498779 1001.414429,805.300964 
	C1030.880493,821.741760 1061.244385,836.594360 1091.424194,851.725708 
	C1106.155029,859.111389 1115.931885,856.072998 1123.970703,842.329468 
M376.386932,253.226288 
	C379.438721,254.027878 382.450104,255.071274 385.549286,255.589355 
	C399.255341,257.880585 411.863098,245.731506 409.737366,232.289490 
	C399.108490,165.078506 370.910950,105.528122 330.411560,51.448059 
	C323.134369,41.730553 314.989410,32.581135 304.341095,26.257870 
	C296.357025,21.516727 291.692749,23.315027 288.664764,31.897240 
	C272.398712,78.000313 276.553497,122.482437 299.324402,165.459076 
	C314.069244,193.287750 334.190887,216.918976 356.994659,238.345306 
	C362.734680,243.738602 369.398224,248.148972 376.386932,253.226288 
M382.392120,904.899597 
	C355.659088,938.903381 336.784393,976.978760 324.010040,1018.157776 
	C318.771637,1035.044067 314.779114,1052.189087 315.963837,1070.109131 
	C316.795532,1082.688599 323.413971,1091.818115 333.942963,1092.392090 
	C339.410156,1092.689941 345.501678,1090.846802 350.512329,1088.360840 
	C362.787170,1082.270752 372.180725,1072.378052 380.889191,1062.063232 
	C408.259979,1029.643799 427.741364,992.720215 441.589813,952.806458 
	C447.263367,936.454163 451.445374,919.595703 450.776917,902.050781 
	C450.356598,891.018616 447.560913,880.623413 436.832825,875.067261 
	C426.446564,869.688110 416.646729,873.471252 408.527405,880.070496 
	C399.411682,887.479553 391.369202,896.208984 382.392120,904.899597 
M146.604370,257.921997 
	C126.706749,251.462021 106.910812,244.657166 86.852180,238.743317 
	C80.483955,236.865784 73.423653,237.062790 66.665047,236.886826 
	C62.747314,236.784836 60.395573,239.568817 60.957386,243.506744 
	C61.769054,249.196045 61.798500,255.631561 64.601830,260.275787 
	C71.351295,271.457458 78.594254,282.612213 87.283989,292.301849 
	C115.314262,323.557312 149.758469,346.539581 186.583298,366.068359 
	C205.291214,375.989410 224.773438,384.162018 245.922714,387.332001 
	C250.805557,388.063843 255.978775,388.322998 260.826508,387.567963 
	C280.590942,384.489502 289.457703,366.177399 280.151062,347.974304 
	C272.833374,333.661469 261.139343,323.224823 248.517212,313.843079 
	C217.344650,290.673370 183.008026,273.180969 146.604370,257.921997 
M1035.440918,263.915344 
	C1041.162354,257.539978 1045.659058,250.443253 1044.640381,241.530533 
	C1041.713135,215.920380 1010.674866,201.409866 989.155212,215.402008 
	C979.112854,221.931595 969.035767,228.408875 959.045166,235.016937 
	C933.514526,251.903580 907.117981,267.631653 884.190979,288.110504 
	C874.925293,296.386841 866.117737,305.395508 858.356567,315.076904 
	C850.110229,325.363556 851.863220,335.863525 861.268188,344.906189 
	C873.019409,356.204803 886.993164,358.726379 902.421814,355.550720 
	C920.813538,351.765137 937.073059,343.092712 952.662781,333.075592 
	C982.937256,313.622803 1009.440430,289.615479 1035.440918,263.915344 
M118.637604,820.152283 
	C113.942375,826.976379 108.456017,833.400452 104.751785,840.725769 
	C100.098602,849.927551 103.404045,858.007812 112.459221,863.042419 
	C119.922455,867.192017 128.034515,867.558716 136.263153,866.527527 
	C154.520950,864.239380 171.333969,857.573547 187.421707,849.007690 
	C212.094711,835.870605 235.371704,820.750916 253.766159,799.269226 
	C260.690063,791.183289 267.319397,782.741272 270.417053,772.258606 
	C274.434479,758.663513 266.807831,747.274475 252.829285,745.848267 
	C242.660904,744.810852 232.845367,746.899231 223.501450,750.439270 
	C183.504242,765.592529 148.537949,788.465332 118.637604,820.152283 
z"/>
<path fill="#FFD204" opacity="1.000000" stroke="none" 
	d="
M680.539368,0.999997 
	C681.234375,1.223374 681.435425,1.584790 681.707825,1.650481 
	C702.717957,6.716963 713.701538,21.297031 713.049011,44.193275 
	C711.451660,100.247040 705.042542,155.604294 687.028625,209.100800 
	C683.199097,220.473450 677.320801,230.634064 668.928284,239.197342 
	C651.180603,257.306122 628.795410,246.966263 620.798157,231.635849 
	C615.325378,221.144852 613.707458,209.809875 613.502197,198.317963 
	C612.607849,148.254074 617.700745,98.982262 634.482727,51.444889 
	C637.851685,41.901661 641.736694,32.505070 645.976868,23.314535 
	C650.612427,13.267056 657.010681,4.653974 668.754333,1.258214 
	C672.692932,1.000000 676.385803,1.000000 680.539368,0.999997 
z"/>
<path fill="#FFD204" opacity="1.000000" stroke="none" 
	d="
M1200.000000,523.539368 
	C1197.542114,540.193726 1185.929199,546.487366 1171.942383,551.181519 
	C1142.391724,561.099243 1112.184937,568.364990 1081.580322,573.780945 
	C1057.225464,578.090820 1032.681763,581.670471 1008.077698,584.134521 
	C985.155823,586.430054 966.298828,575.942383 950.620850,560.297302 
	C941.306824,551.002747 942.279236,538.419128 952.958679,530.735535 
	C961.860291,524.331116 972.055664,519.285828 982.322571,515.297729 
	C1018.155762,501.378418 1055.589722,493.605255 1093.648926,489.181396 
	C1117.916504,486.360657 1142.324585,484.398346 1166.726074,483.185913 
	C1187.873047,482.135193 1196.830688,490.637146 1199.685303,511.765625 
	C1200.000000,515.692932 1200.000000,519.385803 1200.000000,523.539368 
z"/>
<path fill="#FFD204" opacity="1.000000" stroke="none" 
	d="
M1.000000,542.454102 
	C5.423233,527.885010 16.285416,520.365784 29.015190,514.884827 
	C47.544376,506.906708 67.094292,502.927307 87.066101,501.286224 
	C120.573959,498.532928 153.939713,499.706543 186.879410,507.027496 
	C202.189072,510.430054 217.144302,515.025818 230.314560,523.944702 
	C248.518494,536.272522 248.727417,555.220398 230.772903,568.051758 
	C218.051071,577.143494 203.468246,581.727600 188.280594,584.421936 
	C140.102097,592.968872 92.179474,592.287048 44.912979,578.867554 
	C34.461952,575.900391 24.515936,570.923645 14.647645,566.221130 
	C8.713781,563.393433 4.205894,558.549683 1.325181,552.117493 
	C1.000000,548.969421 1.000000,545.938782 1.000000,542.454102 
z"/>
<path fill="#FFD204" opacity="1.000000" stroke="none" 
	d="
M607.458069,1149.000000 
	C593.729675,1142.000244 589.045593,1129.223511 585.061157,1116.081787 
	C577.645752,1091.623413 575.875427,1066.429688 576.054993,1041.071899 
	C576.264771,1011.433838 577.525818,981.820557 584.112122,952.795166 
	C586.636475,941.670349 589.852051,930.535034 594.272034,920.044678 
	C601.938354,901.849792 612.950439,898.327698 629.615417,913.930542 
	C638.206360,921.973816 642.390747,932.811646 646.161865,943.731262 
	C655.592896,971.039429 657.590393,999.294617 656.993774,1027.886963 
	C656.401611,1056.269287 653.756897,1084.432983 644.699829,1111.476440 
	C641.527649,1120.948364 636.499817,1129.998901 631.056213,1138.426147 
	C628.293274,1142.703613 622.723572,1145.167969 618.211365,1148.726074 
	C614.638733,1149.000000 611.277405,1149.000000 607.458069,1149.000000 
z"/>
<path fill="#FFD204" opacity="1.000000" stroke="none" 
	d="
M584.054565,697.596497 
	C570.826904,696.431702 558.039978,695.635437 545.359070,694.011658 
	C528.532593,691.857117 515.826294,682.891418 506.139923,669.089722 
	C492.265656,649.320923 482.404846,627.518005 473.242950,605.352112 
	C467.208069,590.751526 461.194672,576.130737 459.012085,560.283813 
	C454.972748,530.955627 461.597046,503.724945 475.214508,477.922638 
	C490.901398,448.199188 513.068115,423.674347 537.658386,401.190094 
	C565.018860,376.172729 595.091003,355.419983 629.830994,341.665619 
	C716.114075,307.504120 831.065491,341.538208 877.970093,435.984131 
	C883.838013,447.799744 886.373047,461.561920 888.829773,474.725006 
	C895.803894,512.091675 895.324646,549.858521 894.211792,587.722107 
	C892.427734,648.422424 867.390930,698.044067 823.317322,738.329163 
	C761.163391,795.140259 687.289307,828.950928 605.362366,845.936584 
	C572.834656,852.680481 539.907898,856.307007 506.618256,854.825562 
	C443.125214,851.999939 388.451538,828.676453 342.546173,784.481140 
	C303.404083,746.797119 279.519287,701.227051 270.292542,647.884705 
	C264.922729,616.840210 264.797424,585.617065 267.852600,554.296509 
	C271.566040,516.228455 280.530334,479.557800 296.401001,444.705078 
	C312.960358,408.339905 335.903290,376.445557 365.130157,349.236572 
	C394.539856,321.857300 424.947083,295.655792 459.828735,275.270752 
	C472.806549,267.686462 486.324097,261.154846 501.543854,259.524231 
	C512.583618,258.341431 523.190247,260.349731 532.758179,266.109467 
	C543.175903,272.380707 547.937012,282.425049 548.757141,294.055084 
	C551.139221,327.834625 539.993652,356.349091 513.781250,378.176270 
	C505.894073,384.743988 496.388458,389.337402 488.274750,395.668854 
	C440.515381,432.937317 406.640533,479.692200 391.577728,539.045593 
	C381.835846,577.432617 379.702698,615.984131 394.278381,653.487793 
	C417.524109,713.299744 460.819794,749.156616 525.215149,757.031494 
	C590.587952,765.026001 648.107605,745.335327 699.321289,705.158875 
	C733.787964,678.120300 761.664551,645.713989 780.034424,605.629700 
	C793.787903,575.618958 801.825562,544.195251 802.308533,511.093750 
	C802.463318,500.484406 801.666809,489.838715 800.801392,479.250854 
	C800.547729,476.147491 799.144592,472.751953 797.273865,470.227081 
	C780.249512,447.249237 759.595825,428.970825 731.522583,420.556091 
	C708.969543,413.795990 686.386780,414.845551 664.025146,421.022369 
	C632.576599,429.709198 603.244141,442.991577 578.543945,464.755981 
	C550.893799,489.119629 545.621460,519.214355 561.066956,552.815552 
	C569.023987,570.125793 583.119385,580.263123 598.712585,589.150879 
	C600.713867,590.291504 604.857666,590.857849 605.905518,589.732178 
	C607.435425,588.088562 608.090454,584.319519 607.322266,582.069824 
	C603.572632,571.088074 599.068665,560.366638 595.150085,549.438904 
	C592.806641,542.903564 590.163696,536.282715 589.205933,529.481995 
	C586.948975,513.456482 595.685242,502.684326 607.972046,494.048523 
	C618.510132,486.641846 630.372131,483.103455 643.085815,482.667206 
	C664.703979,481.925415 686.043518,483.855560 704.090698,497.143341 
	C729.698364,515.997742 741.787537,541.951233 738.244324,573.575623 
	C734.012695,611.343567 717.718018,643.635803 688.861084,668.828735 
	C669.379150,685.836975 645.990112,693.988586 620.447144,696.001526 
	C608.511169,696.942078 596.512634,697.089661 584.054565,697.596497 
z"/>
<path fill="#FFD204" opacity="1.000000" stroke="none" 
	d="
M821.863159,1020.129883 
	C791.395630,981.708313 770.192200,938.814331 755.154297,892.735168 
	C750.574829,878.702881 750.077332,864.817566 759.786011,852.362366 
	C772.057861,836.619019 789.946960,832.478760 807.913574,841.081177 
	C820.041260,846.887878 829.656738,855.784729 837.982239,866.134216 
	C857.642212,890.573303 872.275574,917.942139 884.924438,946.509827 
	C896.570801,972.813477 908.066284,999.207581 920.647705,1025.065674 
	C929.807739,1043.891846 922.779846,1057.417603 908.464539,1067.881714 
	C893.726624,1078.654785 878.055176,1077.864624 864.935669,1065.033447 
	C850.198914,1050.620361 836.325500,1035.324585 821.863159,1020.129883 
z"/>
<path fill="#FFD204" opacity="1.000000" stroke="none" 
	d="
M1123.811279,842.666992 
	C1115.931885,856.072998 1106.155029,859.111389 1091.424194,851.725708 
	C1061.244385,836.594360 1030.880493,821.741760 1001.414429,805.300964 
	C973.092896,789.498779 945.807129,771.839783 918.075745,754.981140 
	C916.512817,754.031006 914.997498,752.992004 913.523621,751.907837 
	C900.363098,742.227173 895.817566,729.887573 900.210510,715.841431 
	C905.261230,699.692200 916.380371,691.202576 932.929565,690.838623 
	C951.093872,690.439026 967.554138,696.586609 983.645081,704.085022 
	C1008.666321,715.744995 1031.373657,731.135925 1053.634277,747.300720 
	C1075.464233,763.152710 1097.348633,778.945068 1119.595215,794.200867 
	C1129.730591,801.151306 1132.698975,810.280884 1130.421631,821.432373 
	C1128.969971,828.540710 1126.167480,835.373291 1123.811279,842.666992 
z"/>
<path fill="#FFD204" opacity="1.000000" stroke="none" 
	d="
M376.012146,253.118683 
	C369.398224,248.148972 362.734680,243.738602 356.994659,238.345306 
	C334.190887,216.918976 314.069244,193.287750 299.324402,165.459076 
	C276.553497,122.482437 272.398712,78.000313 288.664764,31.897240 
	C291.692749,23.315027 296.357025,21.516727 304.341095,26.257870 
	C314.989410,32.581135 323.134369,41.730553 330.411560,51.448059 
	C370.910950,105.528122 399.108490,165.078506 409.737366,232.289490 
	C411.863098,245.731506 399.255341,257.880585 385.549286,255.589355 
	C382.450104,255.071274 379.438721,254.027878 376.012146,253.118683 
z"/>
<path fill="#FFD204" opacity="1.000000" stroke="none" 
	d="
M382.625977,904.631775 
	C391.369202,896.208984 399.411682,887.479553 408.527405,880.070496 
	C416.646729,873.471252 426.446564,869.688110 436.832825,875.067261 
	C447.560913,880.623413 450.356598,891.018616 450.776917,902.050781 
	C451.445374,919.595703 447.263367,936.454163 441.589813,952.806458 
	C427.741364,992.720215 408.259979,1029.643799 380.889191,1062.063232 
	C372.180725,1072.378052 362.787170,1082.270752 350.512329,1088.360840 
	C345.501678,1090.846802 339.410156,1092.689941 333.942963,1092.392090 
	C323.413971,1091.818115 316.795532,1082.688599 315.963837,1070.109131 
	C314.779114,1052.189087 318.771637,1035.044067 324.010040,1018.157776 
	C336.784393,976.978760 355.659088,938.903381 382.625977,904.631775 
z"/>
<path fill="#FFD204" opacity="1.000000" stroke="none" 
	d="
M146.972443,258.030457 
	C183.008026,273.180969 217.344650,290.673370 248.517212,313.843079 
	C261.139343,323.224823 272.833374,333.661469 280.151062,347.974304 
	C289.457703,366.177399 280.590942,384.489502 260.826508,387.567963 
	C255.978775,388.322998 250.805557,388.063843 245.922714,387.332001 
	C224.773438,384.162018 205.291214,375.989410 186.583298,366.068359 
	C149.758469,346.539581 115.314262,323.557312 87.283989,292.301849 
	C78.594254,282.612213 71.351295,271.457458 64.601830,260.275787 
	C61.798500,255.631561 61.769054,249.196045 60.957386,243.506744 
	C60.395573,239.568817 62.747314,236.784836 66.665047,236.886826 
	C73.423653,237.062790 80.483955,236.865784 86.852180,238.743317 
	C106.910812,244.657166 126.706749,251.462021 146.972443,258.030457 
z"/>
<path fill="#FFD204" opacity="1.000000" stroke="none" 
	d="
M1035.188965,264.166809 
	C1009.440430,289.615479 982.937256,313.622803 952.662781,333.075592 
	C937.073059,343.092712 920.813538,351.765137 902.421814,355.550720 
	C886.993164,358.726379 873.019409,356.204803 861.268188,344.906189 
	C851.863220,335.863525 850.110229,325.363556 858.356567,315.076904 
	C866.117737,305.395508 874.925293,296.386841 884.190979,288.110504 
	C907.117981,267.631653 933.514526,251.903580 959.045166,235.016937 
	C969.035767,228.408875 979.112854,221.931595 989.155212,215.402008 
	C1010.674866,201.409866 1041.713135,215.920380 1044.640381,241.530533 
	C1045.659058,250.443253 1041.162354,257.539978 1035.188965,264.166809 
z"/>
<path fill="#FFD204" opacity="1.000000" stroke="none" 
	d="
M118.860268,819.874756 
	C148.537949,788.465332 183.504242,765.592529 223.501450,750.439270 
	C232.845367,746.899231 242.660904,744.810852 252.829285,745.848267 
	C266.807831,747.274475 274.434479,758.663513 270.417053,772.258606 
	C267.319397,782.741272 260.690063,791.183289 253.766159,799.269226 
	C235.371704,820.750916 212.094711,835.870605 187.421707,849.007690 
	C171.333969,857.573547 154.520950,864.239380 136.263153,866.527527 
	C128.034515,867.558716 119.922455,867.192017 112.459221,863.042419 
	C103.404045,858.007812 100.098602,849.927551 104.751785,840.725769 
	C108.456017,833.400452 113.942375,826.976379 118.860268,819.874756 
z"/>
</svg>